<?xml version="1.0" encoding="UTF-8" standalone="no"?>
<!-- Created with Inkscape (http://www.inkscape.org/) -->

<svg
   width="1200"
   height="627"
   viewBox="0 0 1200 627"
   version="1.1"
   id="svg5"
   inkscape:version="1.2.2 (b0a8486541, 2022-12-01)"
   sodipodi:docname="adversting.svg"
   xml:space="preserve"
   xmlns:inkscape="http://www.inkscape.org/namespaces/inkscape"
   xmlns:sodipodi="http://sodipodi.sourceforge.net/DTD/sodipodi-0.dtd"
   xmlns:xlink="http://www.w3.org/1999/xlink"
   xmlns="http://www.w3.org/2000/svg"
   xmlns:svg="http://www.w3.org/2000/svg"><sodipodi:namedview
     id="namedview7"
     pagecolor="#505050"
     bordercolor="#ffffff"
     borderopacity="1"
     inkscape:showpageshadow="0"
     inkscape:pageopacity="0"
     inkscape:pagecheckerboard="1"
     inkscape:deskcolor="#505050"
     inkscape:document-units="px"
     showgrid="false"
     inkscape:zoom="1.2619047"
     inkscape:cx="438.22642"
     inkscape:cy="320.54717"
     inkscape:window-width="1920"
     inkscape:window-height="1004"
     inkscape:window-x="0"
     inkscape:window-y="0"
     inkscape:window-maximized="1"
     inkscape:current-layer="layer1" /><defs
     id="defs2"><linearGradient
       inkscape:collect="always"
       id="linearGradient5711"><stop
         style="stop-color:#00ff00;stop-opacity:1;"
         offset="0"
         id="stop5707" /><stop
         style="stop-color:#4141bf;stop-opacity:1;"
         offset="1"
         id="stop5709" /></linearGradient><linearGradient
       id="linearGradient5680"
       inkscape:swatch="solid"><stop
         style="stop-color:#000000;stop-opacity:1;"
         offset="0"
         id="stop5678" /></linearGradient><linearGradient
       inkscape:collect="always"
       xlink:href="#linearGradient5680"
       id="linearGradient5682"
       x1="0.18987553"
       y1="313.24467"
       x2="1200.1515"
       y2="313.24467"
       gradientUnits="userSpaceOnUse"
       gradientTransform="matrix(0.99589392,0,0,0.99029279,2.293624,2.2960338)" /><linearGradient
       inkscape:collect="always"
       xlink:href="#linearGradient5711"
       id="linearGradient5713"
       x1="-2.3101245"
       y1="313.24467"
       x2="1202.6515"
       y2="313.24467"
       gradientUnits="userSpaceOnUse"
       gradientTransform="matrix(0.99589392,0,0,0.99029279,2.293624,2.2960338)" /></defs><g
     inkscape:label="background"
     inkscape:groupmode="layer"
     id="layer1"><rect
       style="display:inline;fill:url(#linearGradient5713);fill-opacity:1;stroke:url(#linearGradient5682);stroke-width:4.96544;stroke-dasharray:none;stroke-dashoffset:0"
       id="rect788"
       width="1195.0345"
       height="620.03455"
       x="2.4827199"
       y="2.4827199"
       inkscape:label="rect788" /></g><g
     inkscape:groupmode="layer"
     id="layer2"
     inkscape:label="Word area"><text
       xml:space="preserve"
       style="font-size:29.664px;letter-spacing:3.708px;white-space:pre;inline-size:562.721;display:inline;fill:#000000;fill-opacity:1.19677e-07;stroke-width:5;stroke-dasharray:none;stroke-dashoffset:0"
       x="808.3407"
       y="153.16685"
       id="text6528"
       transform="matrix(2.6736533,0,0,1.7409899,-2304.5145,-73.536506)"
       inkscape:label="Тактильные шахматы"><tspan
         x="808.3407"
         y="153.16685"
         id="tspan5303"><tspan
           style="-inkscape-font-specification:sans-serif;text-align:center;text-anchor:middle;fill:#241c1c;stroke:#241c1c"
           id="tspan5301">ТАКТИЛЬНЫЕ ШАХМАТЫ</tspan></tspan></text><text
       xml:space="preserve"
       style="font-style:normal;font-variant:normal;font-weight:normal;font-stretch:normal;font-size:66.7409px;font-family:sans-serif;-inkscape-font-specification:sans-serif;text-align:center;text-anchor:middle;fill:#241c1c;fill-opacity:1.19677e-07;stroke:#241c1c;stroke-width:5.21413;stroke-dasharray:none;stroke-dashoffset:0"
       x="271.94891"
       y="674.65088"
       id="text6804"
       transform="scale(1.0938225,0.91422511)"
       inkscape:label="Номер телефона"><tspan
         sodipodi:role="line"
         id="tspan6802"
         x="271.94891"
         y="674.65088"
         style="stroke-width:5.21413">+7 981 119 11 87</tspan></text><text
       xml:space="preserve"
       style="font-style:normal;font-variant:normal;font-weight:normal;font-stretch:normal;font-size:44.3577px;font-family:sans-serif;-inkscape-font-specification:sans-serif;text-align:center;text-anchor:middle;fill:#241c1c;fill-opacity:1.19677e-07;stroke:#241c1c;stroke-width:3.46547;stroke-dasharray:none;stroke-dashoffset:0"
       x="952.80176"
       y="578.69934"
       id="text6808"
       transform="scale(0.95322076,1.0490749)"
       inkscape:label="Email"><tspan
         sodipodi:role="line"
         id="tspan6806"
         x="952.80176"
         y="578.69934"
         style="stroke-width:3.46547">maximov-matvey@yandex.ru</tspan></text><text
       xml:space="preserve"
       style="font-style:normal;font-variant:normal;font-weight:normal;font-stretch:normal;font-size:79.5147px;font-family:sans-serif;-inkscape-font-specification:sans-serif;text-align:center;text-anchor:middle;fill:#241c1c;fill-opacity:1.19677e-07;stroke:#241c1c;stroke-width:6.21209;stroke-dasharray:none;stroke-dashoffset:0"
       x="1278.7054"
       y="270.29077"
       id="text6812"
       transform="scale(0.70180762,1.4248919)"
       inkscape:label="Рекламный слоган"><tspan
         sodipodi:role="line"
         x="1278.7054"
         y="270.29077"
         id="tspan6814"
         style="stroke-width:6.21209">ШАХМАТЫ ДЛЯ ВСЕХ</tspan></text><circle
       style="fill:#000000;fill-opacity:0.000000119677;stroke:#241c1c;stroke-width:5"
       id="path1266"
       cx="63.755241"
       cy="61.479927"
       r="40" /><g
       inkscape:groupmode="layer"
       id="layer3"
       inkscape:label="Товарный знак"
       style="fill:#000000"><path
         style="fill:#000000;stroke-width:0.11879"
         d="m 38.953969,89.200718 -0.4211,-0.387369 0.003,-2.375479 c 0.002,-1.306514 0.0594,-2.600313 0.12824,-2.87511 0.44277,-1.766693 2.17148,-3.352646 3.93759,-3.612432 0.60181,-0.08852 0.665,-0.154534 0.8624,-0.90094 0.24865,-0.94023 1.06908,-2.341547 1.81415,-3.098634 0.73195,-0.743759 2.01003,-1.594815 2.8701,-1.911159 0.47656,-0.175284 0.55298,-0.269058 1.09947,-1.349044 2.70442,-5.344574 4.38872,-11.824044 4.39401,-16.903663 l 10e-4,-1.273649 -0.67298,-0.179965 c -1.21638,-0.325282 -2.35692,-1.386127 -2.68315,-2.495677 -0.2024,-0.688369 -0.0811,-1.971785 0.24093,-2.549743 0.3721,-0.66777 0.94571,-1.240822 1.58935,-1.587797 0.30014,-0.161802 0.52937,-0.326468 0.5094,-0.365924 -0.02,-0.03946 -0.30015,-0.558796 -0.62262,-1.15409 -0.88545,-1.634626 -1.14054,-2.677194 -1.12896,-4.614241 0.0111,-1.864681 0.24428,-2.846732 1.03874,-4.37541 1.44666,-2.78363 4.07746,-4.782313 7.39147,-5.615494 1.38768,-0.348878 4.13658,-0.346753 5.5467,0.0043 3.34314,0.832257 5.99756,2.89311 7.44935,5.783568 0.72995,1.453305 0.94326,2.393009 0.95408,4.203048 0.0115,1.925907 -0.24117,2.955649 -1.13222,4.614241 -0.31981,0.595294 -0.59817,1.114634 -0.61858,1.15409 -0.0204,0.03946 0.20848,0.204122 0.50862,0.365924 0.64363,0.346975 1.21725,0.920027 1.58935,1.587797 0.32205,0.577958 0.44332,1.861374 0.24093,2.549743 -0.3306,1.124416 -1.48539,2.186808 -2.71997,2.502337 l -0.69809,0.178414 0.0824,1.840754 c 0.25096,5.609073 1.71477,11.074416 4.37327,16.328206 0.57176,1.129916 0.60042,1.163058 1.20582,1.394492 0.87458,0.334339 2.06927,1.147263 2.81853,1.91786 0.6956,0.715407 1.52229,2.147084 1.76101,3.049728 0.1974,0.746406 0.26058,0.812416 0.8624,0.90094 1.75605,0.258306 3.49734,1.855803 3.93759,3.612432 0.0689,0.274797 0.12658,1.568596 0.12824,2.87511 l 0.003,2.375479 -0.42111,0.387369 -0.4211,0.387368 h -22.68991 -22.69024 z m 44.16399,-3.514799 c -0.002,-1.324084 -0.0443,-1.707583 -0.22835,-2.079256 -0.29016,-0.586043 -1.10632,-1.261504 -1.71088,-1.415932 -0.30643,-0.07827 -2.81759,-0.121101 -7.12461,-0.121513 -4.51723,-4.55e-4 -6.74603,-0.04031 -6.94637,-0.124275 -0.74757,-0.313325 -0.88706,-1.283327 -0.26224,-1.823464 l 0.31762,-0.274568 5.5761,-0.03188 5.5761,-0.03188 -0.0802,-0.309912 c -0.43589,-1.685145 -2.40198,-3.329079 -4.38956,-3.670301 -0.9043,-0.155248 -22.65627,-0.155248 -23.56057,0 -1.98946,0.341545 -3.95337,1.984835 -4.39048,3.673701 l -0.0811,0.313313 h 5.4749 c 4.88572,0 5.51248,0.02042 5.82406,0.189727 0.82352,0.447494 0.78833,1.597337 -0.0598,1.952797 -0.23884,0.100105 -2.08436,0.136282 -6.97614,0.136749 -4.30701,4.56e-4 -6.81817,0.04324 -7.1246,0.121513 -0.60456,0.154428 -1.42073,0.829889 -1.71088,1.415932 -0.18401,0.371673 -0.22613,0.755172 -0.22835,2.079256 l -0.003,1.62353 h 21.05536 21.05535 l -0.003,-1.62353 z m -21.61987,-3.747737 c -0.14168,-0.06324 -0.35615,-0.268452 -0.4766,-0.456032 -0.60408,-0.940693 0.61998,-2.070006 1.64183,-1.514746 1.36202,0.740106 0.25862,2.606322 -1.16523,1.970778 z m 10.93298,-8.670837 c -0.0355,-0.07833 -0.32484,-0.706377 -0.64294,-1.395665 -2.22999,-4.8322 -3.77777,-11.468038 -3.77777,-16.196624 V 54.49707 h -5.92616 -5.92616 l -0.0738,1.908359 c -0.19525,5.049838 -1.58423,10.791126 -3.74174,15.466251 -0.3181,0.689288 -0.60742,1.317337 -0.64294,1.395665 -0.0514,0.113275 2.06962,0.142415 10.36575,0.142415 8.29613,0 10.41711,-0.02914 10.36575,-0.142415 z m -1.69726,-21.21916 c 0.52014,-0.247426 0.74449,-0.608124 0.74449,-1.196935 0,-0.588811 -0.22435,-0.94951 -0.74449,-1.196935 -0.53785,-0.255848 -16.79913,-0.255848 -17.33697,0 -0.51453,0.244755 -0.7445,0.607026 -0.7445,1.17281 0,0.614398 0.15267,0.885599 0.65814,1.169114 0.38041,0.213367 0.69493,0.221357 8.73003,0.221767 7.15347,3.42e-4 8.38615,-0.02371 8.6933,-0.169821 z m -1.67559,-5.554829 c 3.64057,-4.494706 1.49679,-10.722368 -4.33001,-12.578656 -0.89109,-0.28388 -1.15918,-0.315805 -2.66289,-0.317113 -1.55797,-0.0014 -1.74607,0.02272 -2.75716,0.352911 -1.45164,0.47406 -2.30964,0.962494 -3.37046,1.918711 -1.02681,0.925554 -1.76909,2.016893 -2.24724,3.304024 -0.29527,0.794826 -0.3396,1.093687 -0.3464,2.335603 -0.0113,2.067633 0.46973,3.45467 1.73524,5.003289 l 0.56656,0.693305 h 6.4178 6.4178 z"
         id="path5247" /></g></g></svg>
